<svg width="498" height="300" fill="none" xmlns="http://www.w3.org/2000/svg"><path d="M420.082 166.512h-95.639v-41.584h173.39c-42.987 51.994-67.088 86.037-110.075 138.031L491 260.23 448.956 300H309.832l110.25-133.488z" fill="#fff"/><path fill-rule="evenodd" clip-rule="evenodd" d="M39.313 0v139.795c15.724-16.308 33.546-19.586 53.465-19.586 22.946 0 42.049 8.561 57.308 25.684 15.26 17.006 22.889 38.206 22.889 63.599 0 26.208-7.688 47.874-23.063 64.997-15.259 17.006-34.537 25.509-57.833 25.509H0V0h39.313zm80.197 171.403c8.853 10.25 13.279 23.529 13.279 39.836 0 15.376-4.543 28.189-13.628 38.439-8.969 10.134-20.268 15.201-33.897 15.201H37.041v-54.863c0-16.074 4.485-29.12 13.454-39.138 9.085-10.133 20.85-15.2 35.294-15.2 13.511 0 24.752 5.241 33.721 15.725z" fill="url(#paint0_linear)"/><path fill-rule="evenodd" clip-rule="evenodd" d="M133.027 299.793c29.913-17.241 49.887-51.469 49.887-90.021 0-35.138-16.594-66.685-42.182-85.051h68.68v139.953h33.372c22.248 0 33.372-14.095 33.372-42.283v-97.67h39.313v98.544c0 13.628-1.689 25.393-5.067 35.293-3.262 8.853-8.911 16.832-16.948 23.937-13.279 11.532-30.169 17.298-50.67 17.298H133.027zm-5.649-171.781v-.002c27.076 15.25 45.596 46.139 45.596 81.762a102.15 102.15 0 010 .002c0-35.623-18.52-66.512-45.596-81.762z" fill="#fff"/><defs><linearGradient id="paint0_linear" x1="0" y1="0" x2="143.017" y2="299.998" gradientUnits="userSpaceOnUse"><stop stop-color="#FFE600"/><stop offset=".635" stop-color="#FFE600"/><stop offset="1" stop-color="#FFA800"/></linearGradient></defs></svg>