<svg width="498" height="300" viewBox="0 0 498 300" fill="none" xmlns="http://www.w3.org/2000/svg">
<path d="M420.082 166.512H324.443V124.928H497.833C454.846 176.922 430.745 210.965 387.758 262.959L491 260.23L448.956 300H309.832L420.082 166.512Z" fill="white"/>
<path fill-rule="evenodd" clip-rule="evenodd" d="M39.3125 0V139.795C55.0375 123.487 72.8592 120.209 92.7775 120.209C115.724 120.209 134.827 128.77 150.086 145.893C165.346 162.899 172.975 184.099 172.975 209.492C172.975 235.7 165.287 257.366 149.912 274.489C134.653 291.495 115.375 299.998 92.0787 299.998H0V0H39.3125ZM119.51 171.403C128.363 181.653 132.789 194.932 132.789 211.239C132.789 226.615 128.246 239.428 119.161 249.678C110.192 259.812 98.8928 264.879 85.2645 264.879H37.0411V210.016C37.0411 193.942 41.5257 180.896 50.4947 170.878C59.5803 160.745 71.3449 155.678 85.7887 155.678C99.3005 155.678 110.541 160.919 119.51 171.403Z" fill="url(#paint0_linear)"/>
<path fill-rule="evenodd" clip-rule="evenodd" d="M133.027 299.793C162.94 282.552 182.914 248.324 182.914 209.772C182.914 174.634 166.32 143.087 140.732 124.721H209.412V222.391V264.674H242.784C265.032 264.674 276.156 250.579 276.156 222.391V124.721H315.469V223.265C315.469 236.893 313.78 248.658 310.402 258.558C307.14 267.411 301.491 275.39 293.454 282.495C280.175 294.027 263.285 299.793 242.784 299.793H133.027ZM127.378 128.012L127.378 128.01C154.454 143.26 172.974 174.149 172.974 209.772C172.974 210.961 172.953 212.146 172.912 213.324C172.953 212.146 172.974 210.963 172.974 209.774C172.974 174.151 154.454 143.262 127.378 128.012Z" fill="white"/>
<defs>
<linearGradient id="paint0_linear" x1="0" y1="0" x2="143.017" y2="299.998" gradientUnits="userSpaceOnUse">
<stop stop-color="#FFE600"/>
<stop offset="0.635417" stop-color="#FFE600"/>
<stop offset="1" stop-color="#FFA800"/>
</linearGradient>
</defs>
</svg>
